HIERARCHY
ROOT Root
{
	OFFSET 0.00000 0.00000 0.00000
	CHANNELS 6 Xposition Yposition Zposition Zrotation Xrotation Yrotation
	JOINT Hips
	{
		OFFSET 0 0 0	
		CHANNELS 3 Zrotation Xrotation Yrotation
		JOINT Spine
		{
			OFFSET 0 4 0	
			CHANNELS 3 Zrotation Xrotation Yrotation
			JOINT Spine1
			{
				OFFSET 0 19.4 0	
				CHANNELS 3 Zrotation Xrotation Yrotation
				JOINT Spine2
				{
					OFFSET 0 16.6 0	
					CHANNELS 3 Zrotation Xrotation Yrotation
					JOINT LeftCollar
					{
						OFFSET 0 10 0	
						CHANNELS 3 Zrotation Xrotation Yrotation
						JOINT LeftArm
						{
							OFFSET 15.6 -2 3	
							CHANNELS 3 Zrotation Xrotation Yrotation
							JOINT LeftForeArm
							{
								OFFSET 3.5 -27 -1	
								CHANNELS 3 Zrotation Xrotation Yrotation
								JOINT LeftHand
								{
									OFFSET 1 -27 1	
									CHANNELS 3 Zrotation Xrotation Yrotation
									End Site
									{
										OFFSET 0 -15 0
									}
								}
							}
						}
					}
					JOINT RightCollar
					{
						OFFSET 0 10 0	
						CHANNELS 3 Zrotation Xrotation Yrotation
						JOINT RightArm
						{
							OFFSET -15.6 -2 3	
							CHANNELS 3 Zrotation Xrotation Yrotation
							JOINT RightForeArm
							{
								OFFSET -3.5 -27 -1	
								CHANNELS 3 Zrotation Xrotation Yrotation
								JOINT RightHand
								{
									OFFSET -1 -27 1	
									CHANNELS 3 Zrotation Xrotation Yrotation
									End Site
									{
										OFFSET 0 -15 0
									}
								}
							}
						}
					}
					JOINT Neck
					{
						OFFSET 0 10 0	
						CHANNELS 3 Zrotation Xrotation Yrotation
						JOINT Head
						{
							OFFSET 0 12.7 3	
							CHANNELS 3 Zrotation Xrotation Yrotation
							End Site
							{
								OFFSET 0 12.7 3
							}
						}
					}
				}
			}
		}
	}
	JOINT LeftHip
	{
		OFFSET 0 0 0	
		CHANNELS 3 Zrotation Xrotation Yrotation
		JOINT LeftUpLeg
		{
			OFFSET 8.8 -6 0	
			CHANNELS 3 Zrotation Xrotation Yrotation
			JOINT LeftLeg
			{
				OFFSET 0 -39 2	
				CHANNELS 3 Zrotation Xrotation Yrotation
				JOINT LeftFoot
				{
					OFFSET 0 -43 -2	
					CHANNELS 3 Zrotation Xrotation Yrotation
					JOINT LeftFootFront
					{
						OFFSET 0 -7 8.5	
						CHANNELS 3 Zrotation Xrotation Yrotation
						End Site
						{
							OFFSET 0 -0.5 9
						}
					}
				}
				JOINT LeftHeel
				{
					OFFSET 0 -43 -2	
					CHANNELS 3 Zrotation Xrotation Yrotation
					End Site
					{
						OFFSET 0 -7.5 -5
					}
				}
			}
		}
	}
	JOINT RightHip
	{
		OFFSET 0 0 0	
		CHANNELS 3 Zrotation Xrotation Yrotation
		JOINT RightUpLeg
		{
			OFFSET -8.8 -6 0	
			CHANNELS 3 Zrotation Xrotation Yrotation
			JOINT RightLeg
			{
				OFFSET 0 -39 2	
				CHANNELS 3 Zrotation Xrotation Yrotation
				JOINT RightFoot
				{
					OFFSET 0 -43 -2	
					CHANNELS 3 Zrotation Xrotation Yrotation
					JOINT RightFootFront
					{
						OFFSET 0 -7 8.5	
						CHANNELS 3 Zrotation Xrotation Yrotation
						End Site
						{
							OFFSET 0 -0.5 9
						}
					}
				}
				JOINT RightHeel
				{
					OFFSET 0 -43 -2	
					CHANNELS 3 Zrotation Xrotation Yrotation
					End Site
					{
						OFFSET 0 -7.5 -5
					}
				}
			}
		}
	}
}
MOTION
Frames: 27
Frame Time: 0.025
0 95.743 0 -0 0 -0 1.4335 -0.79535 -29.226 -0.7087 0.21539 2.0396 -0.7087 0.21539 2.0396 -0.5948 0.18263 1.7131 -0 0 -0 -2.3913 0.11587 -10.301 2.8863 3.7221 136.53 -0 0 -0 -0 0 -0 0.78437 1.8976 5.1587 4.898 -3.0155 -2.2607 -0 0 -0 2.6256 -3.7383 -8.3006 2.1409 -3.4757 -6.5946 1.4335 -0.79535 -29.226 -3.6216 1.9313 1.0284 -0 0 -0 -0 0 -0 -0 0 -0 -0 0 -0 1.4335 -0.79535 -29.226 0.71671 -0.43493 -5.4327 -0 0 -0 -0 0 -0 -0 0 -0 -0 0 -0 
0 95.743 0 -0 0 -0 1.5181 -0.74511 -29.347 -0.73521 0.18416 2.0957 -0.73521 0.18416 2.0957 -0.61713 0.15651 1.7603 -0 0 -0 -2.3482 0.13967 -10.396 2.8585 3.6851 136.53 -0 0 -0 -0 0 -0 0.72158 1.7803 4.9774 5.0303 -2.9955 -2.0464 -0 0 -0 2.6456 -3.7375 -8.3555 2.1416 -3.4982 -6.6011 1.5181 -0.74511 -29.347 -3.6731 1.8425 1.1354 -0 0 -0 -0 0 -0 -0 0 -0 -0 0 -0 1.5181 -0.74511 -29.347 0.66362 -0.5171 -5.3208 -0 0 -0 -0 0 -0 -0 0 -0 -0 0 -0 
0 95.743 0 -0 0 -0 1.6404 -0.6725 -29.518 -0.78948 0.14361 2.1855 -0.78948 0.14361 2.1855 -0.6628 0.12266 1.8357 -0 0 -0 -2.243 0.15659 -10.559 2.8023 3.6301 136.55 -0 0 -0 -0 0 -0 0.68083 1.6022 4.6924 5.2143 -2.9666 -1.7464 -0 0 -0 2.7005 -3.7449 -8.452 2.1559 -3.534 -6.6206 1.6404 -0.6725 -29.518 -3.7425 1.7141 1.2886 -0 0 -0 -0 0 -0 -0 0 -0 -0 0 -0 1.6404 -0.6725 -29.518 0.58772 -0.63635 -5.163 -0 0 -0 -0 0 -0 -0 0 -0 -0 0 -0 
0 95.743 0 -0 0 -0 1.7739 -0.59314 -29.698 -0.84133 0.10126 2.2693 -0.84133 0.10126 2.2693 -0.70646 0.087298 1.9061 -0 0 -0 -2.1463 0.15934 -10.673 2.6794 3.5869 136.56 -0 0 -0 -0 0 -0 0.61906 1.4156 4.4203 5.4051 -2.9384 -1.4234 -0 0 -0 2.7485 -3.7533 -8.5331 2.1651 -3.5727 -6.6297 1.7739 -0.59314 -29.698 -3.8135 1.5714 1.4591 -0 0 -0 -0 0 -0 -0 0 -0 -0 0 -0 1.7739 -0.59314 -29.698 0.50629 -0.76686 -4.9963 -0 0 -0 -0 0 -0 -0 0 -0 -0 0 -0 
0 95.743 0 -0 0 -0 1.9128 -0.50985 -29.879 -0.8781 0.048865 2.3369 -0.8781 0.048865 2.3369 -0.73748 0.043454 1.963 -0 0 -0 -2.0838 0.17347 -10.659 2.4518 3.5811 136.5 -0 0 -0 -0 0 -0 0.51163 1.2818 4.1788 5.5825 -2.9523 -1.023 -0 0 -0 2.7723 -3.7442 -8.5847 2.1613 -3.6036 -6.6223 1.9128 -0.50985 -29.879 -3.8884 1.4187 1.6283 -0 0 -0 -0 0 -0 -0 0 -0 -0 0 -0 1.9128 -0.50985 -29.879 0.42453 -0.90265 -4.8273 -0 0 -0 -0 0 -0 -0 0 -0 -0 0 -0 
0 95.743 0 -0 0 -0 2.0566 -0.4224 -30.049 -0.92189 -0.019944 2.4106 -0.92189 -0.019944 2.4106 -0.77446 -0.014147 2.0249 -0 0 -0 -2.0001 0.23699 -10.589 2.1271 3.5819 136.32 -0 0 -0 -0 0 -0 0.44458 1.3039 3.9124 5.7041 -3.1443 -0.44036 -0 0 -0 2.8082 -3.7073 -8.6543 2.163 -3.6199 -6.6271 2.0566 -0.4224 -30.049 -3.9687 1.2557 1.7758 -0 0 -0 -0 0 -0 -0 0 -0 -0 0 -0 2.0566 -0.4224 -30.049 0.34321 -1.0423 -4.6649 -0 0 -0 -0 0 -0 -0 0 -0 -0 0 -0 
0 95.743 0 -0 0 -0 2.1983 -0.33562 -30.189 -0.97234 -0.093876 2.4708 -0.97234 -0.093876 2.4708 -0.81705 -0.07604 2.0756 -0 0 -0 -1.8747 0.31639 -10.434 1.6153 3.5738 136 -0 0 -0 -0 0 -0 0.43834 1.5095 3.6986 5.7683 -3.6175 0.33323 -0 0 -0 2.8537 -3.6545 -8.7155 2.1674 -3.6247 -6.6346 2.1983 -0.33562 -30.189 -4.0439 1.0916 1.8942 -0 0 -0 -0 0 -0 -0 0 -0 -0 0 -0 2.1983 -0.33562 -30.189 0.26154 -1.1759 -4.534 -0 0 -0 -0 0 -0 -0 0 -0 -0 0 -0 
0 95.743 0 -0 0 -0 2.3139 -0.26272 -30.295 -1.0087 -0.16204 2.4917 -1.0087 -0.16204 2.4917 -0.84781 -0.13317 2.0932 -0 0 -0 -1.705 0.40661 -10.11 0.76923 3.5789 135.53 -0 0 -0 -0 0 -0 0.37936 1.6963 3.482 5.9328 -4.1985 1.3751 -0 0 -0 2.8799 -3.5912 -8.7239 2.1618 -3.6166 -6.6225 2.3139 -0.26272 -30.295 -4.0954 0.95529 1.994 -0 0 -0 -0 0 -0 -0 0 -0 -0 0 -0 2.3139 -0.26272 -30.295 0.1922 -1.2805 -4.4414 -0 0 -0 -0 0 -0 -0 0 -0 -0 0 -0 
0 95.743 0 -0 0 -0 2.3908 -0.21206 -30.375 -1.0371 -0.21946 2.4925 -1.0371 -0.21946 2.4925 -0.87184 -0.18132 2.094 -0 0 -0 -1.4543 0.58671 -9.7086 -0.40418 3.5733 134.82 -0 0 -0 -0 0 -0 0.21743 1.7404 3.1418 6.3293 -4.7554 2.6941 -0 0 -0 2.9031 -3.5301 -8.714 2.1589 -3.6028 -6.6093 2.3908 -0.21206 -30.375 -4.1199 0.86735 2.0682 -0 0 -0 -0 0 -0 -0 0 -0 -0 0 -0 2.3908 -0.21206 -30.375 0.14368 -1.3466 -4.3751 -0 0 -0 -0 0 -0 -0 0 -0 -0 0 -0 
0 95.743 0 -0 0 -0 2.4456 -0.17997 -30.441 -1.0801 -0.26671 2.5098 -1.0801 -0.26671 2.5098 -0.90811 -0.22086 2.1086 -0 0 -0 -1.0897 0.87773 -9.4636 -1.8046 3.5368 133.88 -0 0 -0 -0 0 -0 0.084096 1.8755 2.7995 6.8556 -5.5225 4.0267 -0 0 -0 2.9554 -3.4885 -8.7444 2.1743 -3.598 -6.6231 2.4456 -0.17997 -30.441 -4.134 0.81363 2.1181 -0 0 -0 -0 0 -0 -0 0 -0 -0 0 -0 2.4456 -0.17997 -30.441 0.10592 -1.3877 -4.3221 -0 0 -0 -0 0 -0 -0 0 -0 -0 0 -0 
0 95.743 0 -0 0 -0 2.4953 -0.16053 -30.51 -1.1238 -0.31768 2.5268 -1.1238 -0.31768 2.5268 -0.94492 -0.26352 2.1229 -0 0 -0 -0.65827 1.2732 -9.4695 -3.4073 3.4494 132.94 -0 0 -0 -0 0 -0 -0.047364 2.2285 2.7298 7.4351 -6.5841 5.1781 -0 0 -0 3.0094 -3.4415 -8.7676 2.1907 -3.5909 -6.6296 2.4953 -0.16053 -30.51 -4.1517 0.77028 2.1685 -0 0 -0 -0 0 -0 -0 0 -0 -0 0 -0 2.4953 -0.16053 -30.51 0.06986 -1.4141 -4.2664 -0 0 -0 -0 0 -0 -0 0 -0 -0 0 -0 
0 95.743 0 -0 0 -0 2.5435 -0.14992 -30.595 -1.1432 -0.37884 2.5185 -1.1432 -0.37884 2.5185 -0.96142 -0.31486 2.1161 -0 0 -0 -0.25662 1.7193 -9.6588 -5.1548 3.3243 132.09 -0 0 -0 -0 0 -0 -0.33095 2.4948 2.8356 8.1323 -7.5762 6.336 -0 0 -0 3.025 -3.368 -8.7223 2.1868 -3.5685 -6.5884 2.5435 -0.14992 -30.595 -4.1785 0.73109 2.2428 -0 0 -0 -0 0 -0 -0 0 -0 -0 0 -0 2.5435 -0.14992 -30.595 0.03537 -1.429 -4.1955 -0 0 -0 -0 0 -0 -0 0 -0 -0 0 -0 
0 95.743 0 -0 0 -0 2.5884 -0.14374 -30.688 -1.158 -0.43008 2.5366 -1.158 -0.43008 2.5366 -0.97405 -0.35783 2.1313 -0 0 -0 0.12411 2.084 -10.04 -6.9033 3.2183 131.24 -0 0 -0 -0 0 -0 -0.68776 2.4693 2.765 8.9439 -8.3008 7.6534 -0 0 -0 3.0323 -3.3122 -8.7038 2.1804 -3.5544 -6.5524 2.5884 -0.14374 -30.688 -4.2117 0.70275 2.326 -0 0 -0 -0 0 -0 -0 0 -0 -0 0 -0 2.5884 -0.14374 -30.688 0.0033179 -1.4369 -4.11 -0 0 -0 -0 0 -0 -0 0 -0 -0 0 -0 
0 95.743 0 -0 0 -0 2.6156 -0.14185 -30.754 -1.1686 -0.47725 2.5604 -1.1686 -0.47725 2.5604 -0.98306 -0.39739 2.1514 -0 0 -0 0.48225 2.348 -10.494 -8.5715 3.1837 130.36 -0 0 -0 -0 0 -0 -0.96786 2.5257 2.783 9.7057 -9.1203 8.861 -0 0 -0 3.0419 -3.2574 -8.7011 2.1802 -3.5378 -6.5276 2.6156 -0.14185 -30.754 -4.2288 0.69331 2.3874 -0 0 -0 -0 0 -0 -0 0 -0 -0 0 -0 2.6156 -0.14185 -30.754 -0.01719 -1.4321 -4.0441 -0 0 -0 -0 0 -0 -0 0 -0 -0 0 -0 
0 95.743 0 -0 0 -0 2.6311 -0.14232 -30.79 -1.1635 -0.52908 2.5366 -1.1635 -0.52908 2.5366 -0.97891 -0.44097 2.1315 -0 0 -0 0.79898 2.5087 -10.817 -10.218 3.2617 129.44 -0 0 -0 -0 0 -0 -1.1848 2.8179 3.1853 10.335 -10.211 9.8642 -0 0 -0 3.0381 -3.1854 -8.6264 2.1769 -3.5105 -6.4706 2.6311 -0.14232 -30.79 -4.233 0.68806 2.4313 -0 0 -0 -0 0 -0 -0 0 -0 -0 0 -0 2.6311 -0.14232 -30.79 -0.030413 -1.4195 -4.005 -0 0 -0 -0 0 -0 -0 0 -0 -0 0 -0 
0 95.743 0 -0 0 -0 2.628 -0.15016 -30.799 -1.1538 -0.57829 2.4719 -1.1538 -0.57829 2.4719 -0.97086 -0.48243 2.0772 -0 0 -0 1.1338 2.5952 -11.039 -11.947 3.4164 128.49 -0 0 -0 -0 0 -0 -1.4379 2.9808 3.6475 10.909 -11.229 11.161 -0 0 -0 3.0354 -3.1187 -8.4956 2.177 -3.4884 -6.392 2.628 -0.15016 -30.799 -4.2267 0.69634 2.4453 -0 0 -0 -0 0 -0 -0 0 -0 -0 0 -0 2.628 -0.15016 -30.799 -0.031959 -1.3946 -3.9952 -0 0 -0 -0 0 -0 -0 0 -0 -0 0 -0 
0 95.743 0 -0 0 -0 2.5816 -0.18134 -30.776 -1.1566 -0.60342 2.4023 -1.1566 -0.60342 2.4023 -0.97328 -0.50362 2.0187 -0 0 -0 1.5911 2.649 -11.271 -13.861 3.5645 127.32 -0 0 -0 -0 0 -0 -1.7069 2.922 3.9314 11.435 -12.191 13.11 -0 0 -0 3.0633 -3.0997 -8.3835 2.1989 -3.4927 -6.3369 2.5816 -0.18134 -30.776 -4.2004 0.7418 2.4299 -0 0 -0 -0 0 -0 -0 0 -0 -0 0 -0 2.5816 -0.18134 -30.776 -0.0072871 -1.3336 -4.0135 -0 0 -0 -0 0 -0 -0 0 -0 -0 0 -0 
0 95.743 0 -0 0 -0 2.4834 -0.24648 -30.73 -1.1701 -0.5931 2.3346 -1.1701 -0.5931 2.3346 -0.98448 -0.49501 1.9619 -0 0 -0 2.2053 2.6985 -11.36 -16.042 3.6993 125.6 -0 0 -0 -0 0 -0 -1.9499 2.914 4.1908 12.015 -13.48 15.475 -0 0 -0 3.1238 -3.1515 -8.3045 2.2469 -3.537 -6.3148 2.4834 -0.24648 -30.73 -4.1519 0.8433 2.4056 -0 0 -0 -0 0 -0 -0 0 -0 -0 0 -0 2.4834 -0.24648 -30.73 0.04651 -1.2204 -4.0498 -0 0 -0 -0 0 -0 -0 0 -0 -0 0 -0 
0 95.743 0 -0 0 -0 2.3389 -0.34381 -30.672 -1.1753 -0.55784 2.2452 -1.1753 -0.55784 2.2452 -0.98872 -0.4655 1.8867 -0 0 -0 2.9134 2.8289 -11.088 -18.491 3.8842 123.28 -0 0 -0 -0 0 -0 -2.2479 3.0496 4.5136 13.003 -15.179 17.929 -0 0 -0 3.1926 -3.2627 -8.2086 2.3111 -3.6206 -6.2951 2.3389 -0.34381 -30.672 -4.0797 1.0017 2.3736 -0 0 -0 -0 0 -0 -0 0 -0 -0 0 -0 2.3389 -0.34381 -30.672 0.12208 -1.052 -4.1069 -0 0 -0 -0 0 -0 -0 0 -0 -0 0 -0 
0 95.743 0 -0 0 -0 2.1627 -0.46412 -30.6 -1.1674 -0.51343 2.1147 -1.1674 -0.51343 2.1147 -0.98192 -0.42839 1.777 -0 0 -0 3.658 3.0958 -10.549 -21.289 4.1782 120.77 -0 0 -0 -0 0 -0 -2.6452 3.3489 4.8734 14.626 -17.316 20.528 -0 0 -0 3.2642 -3.4003 -8.0508 2.3876 -3.7252 -6.2485 2.1627 -0.46412 -30.6 -3.9886 1.2007 2.3213 -0 0 -0 -0 0 -0 -0 0 -0 -0 0 -0 2.1627 -0.46412 -30.6 0.21072 -0.84085 -4.1935 -0 0 -0 -0 0 -0 -0 0 -0 -0 0 -0 
0 95.743 0 -0 0 -0 2.0025 -0.57865 -30.532 -1.1644 -0.47534 1.9471 -1.1644 -0.47534 1.9471 -0.97923 -0.39663 1.6362 -0 0 -0 4.4168 3.4449 -9.8597 -24.608 4.6717 118.37 -0 0 -0 -0 0 -0 -3.1849 3.7347 5.3807 16.835 -19.933 23.56 -0 0 -0 3.3597 -3.5525 -7.816 2.4821 -3.8511 -6.1556 2.0025 -0.57865 -30.532 -3.9074 1.3959 2.2673 -0 0 -0 -0 0 -0 -0 0 -0 -0 0 -0 2.0025 -0.57865 -30.532 0.28877 -0.63938 -4.2814 -0 0 -0 -0 0 -0 -0 0 -0 -0 0 -0 
0 95.743 0 -0 0 -0 1.8632 -0.67833 -30.487 -1.165 -0.43176 1.7576 -1.165 -0.43176 1.7576 -0.97953 -0.36028 1.4769 -0 0 -0 5.2294 3.8098 -8.742 -28.445 5.5578 115.78 -0 0 -0 -0 0 -0 -3.9946 3.9711 6.1028 19.66 -22.929 27.142 -0 0 -0 3.4736 -3.7592 -7.5062 2.5912 -4.0281 -6.0065 1.8632 -0.67833 -30.487 -3.8401 1.5765 2.2325 -0 0 -0 -0 0 -0 -0 0 -0 -0 0 -0 1.8632 -0.67833 -30.487 0.35906 -0.4577 -4.3407 -0 0 -0 -0 0 -0 -0 0 -0 -0 0 -0 
0 95.743 0 -0 0 -0 1.7113 -0.77941 -30.453 -1.1566 -0.3571 1.5597 -1.1566 -0.3571 1.5597 -0.97223 -0.29785 1.3107 -0 0 -0 6.1704 4.2752 -7.2947 -32.694 6.7752 112.8 -0 0 -0 -0 0 -0 -5.0783 3.9771 6.6893 23.351 -26.143 31.308 -0 0 -0 3.5788 -4.0525 -7.1557 2.6997 -4.2669 -5.8254 1.7113 -0.77941 -30.453 -3.7664 1.7642 2.1927 -0 0 -0 -0 0 -0 -0 0 -0 -0 0 -0 1.7113 -0.77941 -30.453 0.44022 -0.25845 -4.3812 -0 0 -0 -0 0 -0 -0 0 -0 -0 0 -0 
0 95.743 0 -0 0 -0 1.5451 -0.88608 -30.412 -1.1505 -0.25034 1.3763 -1.1505 -0.25034 1.3763 -0.96681 -0.20843 1.1564 -0 0 -0 7.2997 4.8487 -6.2471 -37.432 7.9669 110 -0 0 -0 -0 0 -0 -6.3828 3.7235 6.7739 28.158 -29.259 36.105 -0 0 -0 3.6803 -4.4099 -6.8412 2.8028 -4.5427 -5.6701 1.5451 -0.88608 -30.412 -3.681 1.9588 2.1159 -0 0 -0 -0 0 -0 -0 0 -0 -0 0 -0 1.5451 -0.88608 -30.412 0.53116 -0.04152 -4.43 -0 0 -0 -0 0 -0 -0 0 -0 -0 0 -0 
0 95.743 0 -0 0 -0 1.3874 -0.99103 -30.35 -1.159 -0.13508 1.2195 -1.159 -0.13508 1.2195 -0.97373 -0.11181 1.0246 -0 0 -0 8.5624 5.4054 -5.8471 -42.646 9.0021 107.74 -0 0 -0 -0 0 -0 -7.8852 3.2131 6.6503 33.83 -32.208 41.316 -0 0 -0 3.789 -4.7649 -6.6134 2.9005 -4.808 -5.5801 1.3874 -0.99103 -30.35 -3.5938 2.1408 2.0065 -0 0 -0 -0 0 -0 -0 0 -0 -0 0 -0 1.3874 -0.99103 -30.35 0.61446 0.16435 -4.5031 -0 0 -0 -0 0 -0 -0 0 -0 -0 0 -0 
0 95.743 0 -0 0 -0 1.2487 -1.0885 -30.259 -1.1559 -0.046182 1.0312 -1.1559 -0.046182 1.0312 -0.97102 -0.037395 0.86624 -0 0 -0 9.8416 5.8806 -5.534 -48.204 10.159 105.62 -0 0 -0 -0 0 -0 -9.7069 2.4406 7.1241 39.823 -35.32 46.46 -0 0 -0 3.8661 -5.0192 -6.3799 2.9708 -4.9975 -5.5098 1.2487 -1.0885 -30.259 -3.5175 2.3005 1.8928 -0 0 -0 -0 0 -0 -0 0 -0 -0 0 -0 1.2487 -1.0885 -30.259 0.68344 0.34357 -4.6007 -0 0 -0 -0 0 -0 -0 0 -0 -0 0 -0 
0 95.743 0 -0 0 -0 1.1415 -1.1702 -30.145 -1.1406 -0.0092206 0.80366 -1.1406 -0.0092207 0.80366 -0.9581 -0.0066702 0.67509 -0 0 -0 11.282 6.3097 -4.8125 -54.143 11.828 102.91 -0 0 -0 -0 0 -0 -11.772 1.3323 8.1535 45.855 -38.627 51.616 -0 0 -0 3.9073 -5.1153 -6.1278 3.0093 -5.0756 -5.4512 1.1415 -1.1702 -30.145 -3.4643 2.4328 1.7621 -0 0 -0 -0 0 -0 -0 0 -0 -0 0 -0 1.1415 -1.1702 -30.145 0.73471 0.48332 -4.7181 -0 0 -0 -0 0 -0 -0 0 -0 -0 0 -0 
